<svg width="20" height="20" viewBox="0 0 20 20" fill="none"
    xmlns="http://www.w3.org/2000/svg">
    <path d="M3 5H14.1972C14.6988 5 15.1671 5.25065 15.4453 5.66795V5.66795C15.7812 6.1718 15.7812 6.8282 15.4453 7.33205V7.33205C15.1671 7.74935 14.6988 8 14.1972 8H6.80278C6.30125 8 5.8329 8.25065 5.5547 8.66795V8.66795C5.2188 9.1718 5.2188 9.8282 5.5547 10.3321V10.3321C5.8329 10.7493 6.30125 11 6.80278 11H12.1972C12.6988 11 13.1671 11.2507 13.4453 11.6679V11.6679C13.7812 12.1718 13.7812 12.8282 13.4453 13.3321V13.3321C13.1671 13.7493 12.6988 14 12.1972 14H8.80278C8.30125 14 7.8329 14.2507 7.5547 14.6679V14.6679C7.2188 15.1718 7.2188 15.8282 7.5547 16.3321V16.3321C7.8329 16.7493 8.30125 17 8.80278 17H11" stroke="#9EBBF0" stroke-width="2" stroke-linecap="round" stroke-linejoin="round"/>
</svg>
