<svg width="30" height="29" viewBox="0 0 30 29"
    xmlns="http://www.w3.org/2000/svg">
    <path fill-rule="evenodd" clip-rule="evenodd" d="M15.0084 28.6779C22.834 28.6779 29.1779 22.334 29.1779 14.5084C29.1779 6.68277 22.834 0.338867 15.0084 0.338867C7.18277 0.338867 0.838867 6.68277 0.838867 14.5084C0.838867 22.334 7.18277 28.6779 15.0084 28.6779ZM15.0005 7.41667C14.6248 7.41667 14.2645 7.56592 13.9988 7.8316C13.7331 8.09728 13.5839 8.45761 13.5839 8.83333V14.5C13.5839 14.8757 13.7331 15.2361 13.9988 15.5017C14.2645 15.7674 14.6248 15.9167 15.0005 15.9167C15.3763 15.9167 15.7366 15.7674 16.0023 15.5017C16.268 15.2361 16.4172 14.8757 16.4172 14.5V8.83333C16.4172 8.45761 16.268 8.09728 16.0023 7.8316C15.7366 7.56592 15.3763 7.41667 15.0005 7.41667ZM16.3039 19.6283C16.2729 19.5381 16.23 19.4523 16.1764 19.3733L16.0064 19.1608C15.8072 18.9643 15.5542 18.8311 15.2794 18.7782C15.0045 18.7252 14.7202 18.7548 14.4622 18.8633C14.2905 18.9351 14.1324 19.0357 13.9947 19.1608C13.8634 19.2932 13.7595 19.4502 13.689 19.6228C13.6185 19.7954 13.5828 19.9802 13.5839 20.1667C13.5861 20.3518 13.6246 20.5347 13.6972 20.705C13.7608 20.8808 13.8623 21.0405 13.9945 21.1727C14.1267 21.3049 14.2864 21.4064 14.4622 21.47C14.6318 21.545 14.8151 21.5837 15.0005 21.5837C15.1859 21.5837 15.3693 21.545 15.5389 21.47C15.7147 21.4064 15.8743 21.3049 16.0065 21.1727C16.1387 21.0405 16.2403 20.8808 16.3039 20.705C16.3765 20.5347 16.415 20.3518 16.4172 20.1667C16.4242 20.0724 16.4242 19.9777 16.4172 19.8833C16.3928 19.793 16.3546 19.707 16.3039 19.6283Z" fill="#E33F3F"/>
</svg>
