<svg width="375" height="231" viewBox="0 0 375 231" fill="none"
    xmlns="http://www.w3.org/2000/svg">
    <defs>
        <linearGradient id="paint0_linear" x1="414.823" y1="34.2667" x2="414.823" y2="194.974" gradientUnits="userSpaceOnUse">
            <stop stop-color="#AAF3FA"/>
            <stop offset="1" stop-color="#D5FAFD"/>
        </linearGradient>
        <linearGradient id="paint1_linear" x1="-66.9096" y1="60.6116" x2="-66.9096" y2="204.117" gradientUnits="userSpaceOnUse">
            <stop stop-color="#7EDEE7"/>
            <stop offset="1" stop-color="#B5F1F5"/>
        </linearGradient>
        <linearGradient id="paint2_linear" x1="-14.0302" y1="120.052" x2="-14.0302" y2="231" gradientUnits="userSpaceOnUse">
            <stop stop-color="#4297A8"/>
            <stop offset="1" stop-color="#77C8D3"/>
        </linearGradient>
    </defs>
    <path fill-rule="evenodd" clip-rule="evenodd" d="M414.823 68.7402C414.823 68.7402 360.368 34.2667 319.237 34.2667C264.831 34.2667 228.455 81.2826 184.446 81.2826C133.155 81.2826 126.7 67.6966 97.9384 67.6966C57.2876 67.6966 3.63501 93.1721 -24.6601 83.9776C-47.4937 76.5578 -74.9824 61.5714 -74.9824 61.5714V187.41L414.823 194.974V68.7402Z" fill="url(#paint0_linear)"/>
    <path fill-rule="evenodd" clip-rule="evenodd" d="M-66.9096 152.815C-66.9096 152.815 -64.4265 73.6455 -8.13498 61.2664C41.0819 53.9046 79.027 111.044 123.036 111.044C174.327 111.044 198.5 77.8831 248.298 77.8831C284.619 77.8831 320.085 106.713 369.545 96.7198C479.403 74.5225 422.895 70.7142 422.895 70.7142V196.553L-66.9096 204.117V152.815Z" fill="url(#paint1_linear)"/>
    <path fill-rule="evenodd" clip-rule="evenodd" d="M-14.0302 157.872C-14.0302 157.872 9.60004 126.114 28.1449 122.916C46.6897 119.719 56.9537 150.677 56.9537 150.677C56.9537 150.677 65.6363 149.323 70.3523 150.677C75.0682 152.031 78.8025 157.872 78.8025 157.872C78.8025 157.872 84.809 139.217 109.751 139.217C134.692 139.217 147.364 164.42 147.364 164.42C147.364 164.42 155.666 157.872 164.311 157.872C172.957 157.872 182.744 164.42 182.744 164.42C182.744 164.42 188.851 139.217 214.62 139.217C240.39 139.217 251.382 160.605 251.382 160.605C251.382 160.605 261.794 154.035 271.911 154.035C282.027 154.035 294.1 160.605 294.1 160.605C294.1 160.605 297.488 139.855 312.557 127.625C327.627 115.395 360.438 122.916 360.438 122.916L378.386 132.364V231H-14.0302V157.872Z" fill="url(#paint2_linear)"/>
    <path d="M296.316 118.901C296.316 120.302 295.181 121.437 293.78 121.437C292.379 121.437 291.243 120.302 291.243 118.901V111.231C291.243 109.83 292.379 108.694 293.78 108.694C295.181 108.694 296.316 109.83 296.316 111.231V118.901Z" fill="#5C1D1D"/>
    <path fill-rule="evenodd" clip-rule="evenodd" d="M280.806 62.7406L276.68 60.448L292.639 0L312.672 58.6838L306.865 60.448L323.22 112.215L264.339 114.983L280.806 62.7406Z" fill="#328282"/>
    <path d="M345.422 104.485C345.422 105.523 344.58 106.364 343.542 106.364C342.504 106.364 341.662 105.523 341.662 104.485V98.1274C341.662 97.0892 342.504 96.2476 343.542 96.2476C344.58 96.2476 345.422 97.0892 345.422 98.1274V104.485Z" fill="#5C1D1D"/>
    <path fill-rule="evenodd" clip-rule="evenodd" d="M333.429 60.8549L330.407 59.1907L342.095 15.3123L356.767 57.9102L352.514 59.1907L364.492 96.7675L321.369 98.777L333.429 60.8549Z" fill="#328282"/>
    <path d="M210.98 120.12C210.98 121.158 210.138 122 209.1 122C208.062 122 207.22 121.158 207.22 120.12V113.763C207.22 112.725 208.062 111.883 209.1 111.883C210.138 111.883 210.98 112.725 210.98 113.763V120.12Z" fill="#5C1D1D"/>
    <path fill-rule="evenodd" clip-rule="evenodd" d="M201.222 87.0635L198.912 85.7523L207.849 51.1814L219.069 84.7434L215.817 85.7523L224.976 115.358L192 116.941L201.222 87.0635Z" fill="#328282"/>

</svg>
