<svg width="300" height="190" viewBox="0 0 300 190" fill="none"
    xmlns="http://www.w3.org/2000/svg">
    <circle cx="296" cy="4" r="4" fill="#D0FDFF"/>
    <path fill-rule="evenodd" clip-rule="evenodd" d="M49.28 190H88.9C101.105 190 111 180.09 111 167.865C111 155.64 101.105 145.73 88.9 145.73C85.2168 145.73 81.744 146.632 78.69 148.228C74.4377 135.875 62.7286 127 48.95 127C31.5807 127 17.5 141.103 17.5 158.5C17.5 158.857 17.5059 159.212 17.5177 159.565C12.4474 162.294 9.00001 167.656 9.00001 173.824C9.00001 182.758 16.2306 190 25.15 190H48.95C48.9996 190 49.28 190 49.28 190H48.95H49.28Z" fill="#F6F6F8"/>
    <path opacity="0.2" fill-rule="evenodd" clip-rule="evenodd" d="M90.28 159H129.9C142.105 159 152 149.09 152 136.865C152 124.64 142.105 114.73 129.9 114.73C126.217 114.73 122.744 115.632 119.69 117.228C115.438 104.875 103.729 96 89.95 96C72.5807 96 58.5 110.103 58.5 127.5C58.5 127.857 58.5059 128.212 58.5177 128.565C53.4474 131.294 50 136.656 50 142.824C50 151.758 57.2306 159 66.15 159H89.95C89.9996 159 90.28 159 90.28 159H89.95H90.28Z" fill="#F6F6F8"/>
    <circle cx="210.5" cy="38.5" r="31.5" fill="#FAE7A3"/>
    <path fill-rule="evenodd" clip-rule="evenodd" d="M248.217 96H201.217C186.738 96 175 84.2021 175 69.6487C175 55.0952 186.738 43.2973 201.217 43.2973C205.586 43.2973 209.706 44.3717 213.328 46.2719C218.373 31.5651 232.263 21 248.608 21C269.213 21 285.917 37.7893 285.917 58.5C285.917 58.9245 285.91 59.3473 285.896 59.7684C291.91 63.0164 296 69.3998 296 76.7432C296 87.3785 287.423 96 276.842 96H248.608C248.549 96 248.217 96 248.217 96H248.608H248.217Z" fill="#F6F6F8"/>
    <circle cx="133" cy="148" r="4" fill="#D0FDFF"/>
    <circle cx="4" cy="84" r="4" fill="#D0FDFF"/>
</svg>
