<svg width="375" height="221" viewBox="0 0 375 221" fill="none"
    xmlns="http://www.w3.org/2000/svg">
    <defs>
        <linearGradient id="paint0_linear" x1="-29.9375" y1="120.95" x2="-23.988" y2="258.368" gradientUnits="userSpaceOnUse">
            <stop stop-color="#5C6A77"/>
            <stop offset="1" stop-color="#818B97" stop-opacity="0"/>
        </linearGradient>
    </defs>
    <path opacity="0.3" fill-rule="evenodd" clip-rule="evenodd" d="M372.28 63H411.9C424.105 63 434 53.0898 434 40.8649C434 28.64 424.105 18.7297 411.9 18.7297C408.217 18.7297 404.744 19.6322 401.69 21.2284C397.438 8.87472 385.729 0 371.95 0C354.581 0 340.5 14.103 340.5 31.5C340.5 31.8566 340.506 32.2117 340.518 32.5654C335.447 35.2937 332 40.6558 332 46.8243C332 55.7579 339.231 63 348.15 63H371.95C372 63 372.28 63 372.28 63H371.95H372.28Z" fill="#F6F6F8"/>
    <path opacity="0.6" d="M-10.5608 221H32.1667C45.3295 221 56 210.146 56 196.757C56 183.368 45.3295 172.514 32.1667 172.514C28.1946 172.514 24.4494 173.502 21.1559 175.25C16.57 161.72 3.9426 152 -10.9167 152C-29.6483 152 -44.8333 167.446 -44.8333 186.5C-44.8333 186.891 -44.827 187.28 -44.8143 187.667C-50.2823 190.655 -54 196.528 -54 203.284C-54 213.068 -46.2023 221 -36.5833 221H-10.9167C-10.8631 221 -10.5608 221 -10.5608 221H-10.9167H-10.5608Z" fill="url(#paint0_linear)"/>
</svg>
