<svg width="375" height="206" viewBox="0 0 375 206" fill="none" xmlns="http://www.w3.org/2000/svg">
<path fill-rule="evenodd" clip-rule="evenodd" d="M400.636 33.6655C400.636 33.6655 347.457 0 307.291 0C254.16 0 218.636 45.9139 175.659 45.9139C125.57 45.9139 119.267 32.6464 91.1787 32.6464C51.4807 32.6464 -0.914398 57.5248 -28.5464 48.5458C-50.8448 41.2999 -77.6892 26.6647 -77.6892 26.6647V149.554L400.636 156.94V33.6655Z" fill="#5F83ED"/>
<path fill-rule="evenodd" clip-rule="evenodd" d="M-69.8057 115.77C-69.8057 115.77 -67.3808 38.4559 -12.4086 26.3669C35.6548 19.1776 72.7105 74.9778 115.688 74.9778C165.777 74.9778 189.383 42.5941 238.014 42.5941C273.484 42.5941 308.119 70.7486 356.419 60.9893C463.703 39.3123 408.519 35.5933 408.519 35.5933V158.483L-69.8057 165.869V115.77Z" fill="#5462DC"/>
<path fill-rule="evenodd" clip-rule="evenodd" d="M0 136.133C0 136.133 22.5815 105.791 40.3033 102.737C58.0251 99.6819 67.8335 129.259 67.8335 129.259C67.8335 129.259 76.1308 127.965 80.6375 129.259C85.1441 130.553 88.7127 136.133 88.7127 136.133C88.7127 136.133 94.4526 118.31 118.287 118.31C142.122 118.31 154.231 142.389 154.231 142.389C154.231 142.389 162.165 136.133 170.427 136.133C178.689 136.133 188.041 142.389 188.041 142.389C188.041 142.389 193.877 118.31 218.503 118.31C243.128 118.31 253.633 138.744 253.633 138.744C253.633 138.744 263.583 132.468 273.25 132.468C282.918 132.468 294.455 138.744 294.455 138.744C294.455 138.744 297.692 118.92 312.093 107.235C326.494 95.5504 357.849 102.737 357.849 102.737L375 111.763V206H0V136.133Z" fill="#3645AF"/>
</svg>
