<svg width="375" height="106" viewBox="0 0 375 106"
    xmlns="http://www.w3.org/2000/svg">
    <path fill-rule="evenodd" clip-rule="evenodd" d="M0 36.1332C0 36.1332 22.5815 5.79124 40.3033 2.73656C58.0251 -0.318129 67.8335 29.2593 67.8335 29.2593C67.8335 29.2593 76.1308 27.9653 80.6375 29.2593C85.1441 30.5533 88.7127 36.1332 88.7127 36.1332C88.7127 36.1332 94.4526 18.31 118.287 18.31C142.122 18.31 154.231 42.3889 154.231 42.3889C154.231 42.3889 162.165 36.1332 170.427 36.1332C178.689 36.1332 188.041 42.3889 188.041 42.3889C188.041 42.3889 193.877 18.31 218.503 18.31C243.128 18.31 253.633 38.7441 253.633 38.7441C253.633 38.7441 263.583 32.4677 273.25 32.4677C282.918 32.4677 294.455 38.7441 294.455 38.7441C294.455 38.7441 297.692 18.9197 312.093 7.23504C326.494 -4.44962 357.849 2.73656 357.849 2.73656L375 11.7629V106H0V36.1332Z" fill="#3645AF"/>
</svg>
