<svg width="175" height="115" viewBox="0 0 175 115" fill="none"
    xmlns="http://www.w3.org/2000/svg">
    <defs>
        <linearGradient id="paint0_linear_206:283" x1="68.4748" y1="0" x2="68.4748" y2="67.7012" gradientUnits="userSpaceOnUse">
            <stop stop-opacity="0.01"/>
            <stop offset="1" stop-opacity="0.5"/>
        </linearGradient>
        <linearGradient id="paint1_linear_206:283" x1="0" y1="12.0115" x2="0" y2="94.9994" gradientUnits="userSpaceOnUse">
            <stop stop-opacity="0.01"/>
            <stop offset="1" stop-opacity="0.5"/>
        </linearGradient>
        <clipPath id="clip0_206:283">
            <rect width="30" height="30" fill="white" transform="translate(26 84)"/>
        </clipPath>
        <clipPath id="clip1_206:283">
            <rect width="30" height="30" fill="white" transform="translate(60 45)"/>
        </clipPath>
        <clipPath id="clip2_206:283">
            <rect width="43" height="43" fill="white" transform="translate(107 72)"/>
        </clipPath>
    </defs>
    <path fill-rule="evenodd" clip-rule="evenodd" d="M156.791 67.7012C166.034 66.7067 173.396 58.9741 173.396 49.4993C173.396 40.9174 167.36 33.4782 159.353 31.8642C157.161 13.9796 142.111 0 123.857 0C111.019 0 99.7666 6.78394 93.4528 17.0692C93.2967 17.0662 93.1416 17.0235 92.9845 17.0235C79.4477 17.0235 68.4748 28.6532 68.4748 42.3623C68.4748 55.5901 78.6916 66.7067 91.5695 67.7012H156.791Z" fill="#E1EBF8"/>
    <path fill-rule="evenodd" clip-rule="evenodd" d="M156.791 67.7012C166.034 66.7067 173.396 58.9741 173.396 49.4993C173.396 40.9174 167.36 33.4782 159.353 31.8642C157.161 13.9796 142.111 0 123.857 0C111.019 0 99.7666 6.78394 93.4528 17.0692C93.2967 17.0662 93.1416 17.0235 92.9845 17.0235C79.4477 17.0235 68.4748 28.6532 68.4748 42.3623C68.4748 55.5901 78.6916 66.7067 91.5695 67.7012H156.791Z" fill="url(#paint0_linear_206:283)" fill-opacity="0.2"/>
    <path fill-rule="evenodd" clip-rule="evenodd" d="M30.7746 94.9994H105.433C119.149 94.9994 130.322 83.6201 130.322 70.0968C130.322 58.7176 122.756 49.2078 112.116 46.1089C111.834 35.9679 103.331 27.8729 92.8589 27.8729C89.8153 27.8729 86.9475 28.6022 84.3872 29.8267C79.8587 19.352 69.2287 12.0115 56.8358 12.0115C43.3225 12.0115 31.9093 20.7629 28.2144 32.7632C12.2416 34.644 0 47.7125 0 63.7893C0 80.6333 13.2665 94.9994 30.7746 94.9994" fill="#B8C7D8"/>
    <path fill-rule="evenodd" clip-rule="evenodd" d="M30.7746 94.9994H105.433C119.149 94.9994 130.322 83.6201 130.322 70.0968C130.322 58.7176 122.756 49.2078 112.116 46.1089C111.834 35.9679 103.331 27.8729 92.8589 27.8729C89.8153 27.8729 86.9475 28.6022 84.3872 29.8267C79.8587 19.352 69.2287 12.0115 56.8358 12.0115C43.3225 12.0115 31.9093 20.7629 28.2144 32.7632C12.2416 34.644 0 47.7125 0 63.7893C0 80.6333 13.2665 94.9994 30.7746 94.9994" fill="url(#paint1_linear_206:283)" fill-opacity="0.2"/>
    <g clip-path="url(#clip0_206:283)">
        <path d="M53.0833 99.8776L47.6269 101.339L45.5237 100.126V97.8488L47.6029 96.6548L53.0832 98.1233C53.1933 98.1527 53.304 98.1672 53.4137 98.1672C53.9766 98.1672 54.4918 97.7912 54.6439 97.2218C54.8262 96.5412 54.4227 95.8419 53.7423 95.6598L50.7379 94.8548L53.5075 93.2646C54.1179 92.914 54.3292 92.1346 53.9785 91.5239C53.6267 90.9132 52.8488 90.7016 52.2381 91.0531L49.4627 92.6469L50.2675 89.6415C50.4497 88.9612 50.0468 88.2616 49.366 88.0795C48.6897 87.9022 47.9875 88.3012 47.8051 88.981L46.3428 94.4377L44.2506 95.6392L42.2672 94.4925V92.0863L46.278 88.0755C46.7759 87.5774 46.7759 86.7705 46.278 86.2723C45.78 85.7742 44.9733 85.7742 44.4749 86.2723L42.2672 88.4799V85.275C42.2673 84.5709 41.6962 84 40.992 84C40.288 84 39.717 84.5709 39.717 85.275V88.4641L37.5253 86.2723C37.0273 85.7742 36.2204 85.7742 35.7222 86.2723C35.2241 86.7704 35.2241 87.5773 35.7222 88.0755L39.717 92.0703V94.5017L37.7486 95.6373L35.6564 94.4368L34.1951 88.9811C34.0131 88.3012 33.3141 87.9011 32.6343 88.0796C31.9539 88.2617 31.5501 88.9612 31.7324 89.6416L32.5372 92.6465L29.762 91.0531C29.1502 90.7015 28.3714 90.9126 28.0213 91.5242C27.6708 92.135 27.8822 92.9139 28.4928 93.2646L31.2622 94.8547L28.2577 95.6597C27.5773 95.8418 27.1736 96.5412 27.3558 97.2217C27.5084 97.7912 28.0234 98.1671 28.5863 98.1671C28.696 98.1671 28.8067 98.1526 28.9172 98.1232L34.3982 96.6543L36.4751 97.8467L36.4772 100.126L34.3733 101.341L28.9172 99.8775C28.2415 99.7002 27.5383 100.1 27.3558 100.779C27.1736 101.46 27.5773 102.159 28.2577 102.34L31.2512 103.143L28.4896 104.737C27.88 105.09 27.6708 105.869 28.0234 106.479C28.2596 106.889 28.6881 107.116 29.1283 107.116C29.3444 107.116 29.5637 107.062 29.7647 106.945L32.5402 105.343L31.7324 108.359C31.5501 109.041 31.9539 109.738 32.6343 109.921C32.7445 109.951 32.8552 109.965 32.9649 109.965C33.5276 109.965 34.0426 109.589 34.1951 109.019L35.6637 103.54L37.7524 102.335L39.717 103.468V105.931L35.7222 109.926C35.2241 110.424 35.2241 111.23 35.7222 111.729C35.9712 111.978 36.2969 112.101 36.6237 112.101C36.9494 112.101 37.2763 111.978 37.5253 111.729L39.717 109.537V112.725C39.717 113.43 40.288 114 40.992 114C41.6962 114 42.2673 113.43 42.2673 112.725V109.521L44.475 111.729C44.724 111.978 45.0497 112.101 45.3765 112.101C45.7034 112.101 46.0291 111.978 46.2781 111.729C46.776 111.231 46.776 110.424 46.2781 109.926L42.2673 105.915V103.478L44.2487 102.334L46.3368 103.54L47.8054 109.019C47.9577 109.589 48.4727 109.965 49.0354 109.965C49.1447 109.965 49.2557 109.951 49.3661 109.921C50.0469 109.738 50.4497 109.041 50.2677 108.359L49.459 105.343L52.2356 106.945C52.4366 107.062 52.6559 107.116 52.872 107.116C53.3122 107.116 53.7406 106.889 53.9768 106.478C54.3293 105.869 54.1203 105.09 53.5106 104.737L50.7491 103.143L53.7425 102.34C54.4229 102.159 54.8264 101.46 54.6441 100.779C54.4629 100.1 53.7626 99.6993 53.0833 99.8776ZM42.9734 100.126L41 101.265L39.028 100.126L39.0258 97.8447L41 96.7057L42.9734 97.8463V100.126Z" fill="white"/>
    </g>
    <g clip-path="url(#clip1_206:283)">
        <path d="M87.0833 60.8776L81.6269 62.3389L79.5237 61.1256V58.8488L81.6029 57.6548L87.0832 59.1233C87.1933 59.1527 87.304 59.1672 87.4137 59.1672C87.9766 59.1672 88.4918 58.7912 88.6439 58.2218C88.8262 57.5412 88.4227 56.8419 87.7423 56.6598L84.7379 55.8548L87.5075 54.2646C88.1179 53.914 88.3292 53.1346 87.9785 52.5239C87.6267 51.9132 86.8488 51.7016 86.2381 52.0531L83.4627 53.6469L84.2675 50.6415C84.4497 49.9612 84.0468 49.2616 83.366 49.0795C82.6897 48.9022 81.9875 49.3012 81.8051 49.981L80.3428 55.4377L78.2506 56.6392L76.2672 55.4925V53.0863L80.278 49.0755C80.7759 48.5774 80.7759 47.7705 80.278 47.2723C79.78 46.7742 78.9733 46.7742 78.4749 47.2723L76.2672 49.4799V46.275C76.2673 45.5709 75.6962 45 74.992 45C74.288 45 73.717 45.5709 73.717 46.275V49.4641L71.5253 47.2723C71.0273 46.7742 70.2204 46.7742 69.7222 47.2723C69.2241 47.7704 69.2241 48.5773 69.7222 49.0755L73.717 53.0703V55.5017L71.7486 56.6373L69.6564 55.4368L68.1951 49.9811C68.0131 49.3012 67.3141 48.9011 66.6343 49.0796C65.9539 49.2617 65.5501 49.9612 65.7324 50.6416L66.5372 53.6465L63.762 52.0531C63.1502 51.7015 62.3714 51.9126 62.0213 52.5242C61.6708 53.135 61.8822 53.9139 62.4928 54.2646L65.2622 55.8547L62.2577 56.6597C61.5773 56.8418 61.1736 57.5412 61.3558 58.2217C61.5084 58.7912 62.0234 59.1671 62.5863 59.1671C62.696 59.1671 62.8067 59.1526 62.9172 59.1232L68.3982 57.6543L70.4751 58.8467L70.4772 61.1255L68.3733 62.341L62.9172 60.8775C62.2415 60.7002 61.5383 61.0996 61.3558 61.7793C61.1736 62.4595 61.5773 63.1591 62.2577 63.3402L65.2512 64.1431L62.4896 65.7373C61.88 66.0897 61.6708 66.8688 62.0234 67.4785C62.2596 67.8888 62.6881 68.116 63.1283 68.116C63.3444 68.116 63.5637 68.0623 63.7647 67.9447L66.5402 66.343L65.7324 69.3594C65.5501 70.0409 65.9539 70.7382 66.6343 70.9214C66.7445 70.9513 66.8552 70.9654 66.9649 70.9654C67.5276 70.9654 68.0426 70.5889 68.1951 70.019L69.6637 64.5398L71.7524 63.3346L73.717 64.4682V66.9308L69.7222 70.9257C69.2241 71.4237 69.2241 72.2305 69.7222 72.7288C69.9712 72.9779 70.2969 73.1013 70.6237 73.1013C70.9494 73.1013 71.2763 72.9779 71.5253 72.7288L73.717 70.5371V73.7251C73.717 74.4305 74.288 75.0002 74.992 75.0002C75.6962 75.0002 76.2673 74.4303 76.2673 73.7251V70.5212L78.475 72.7288C78.724 72.9779 79.0497 73.1013 79.3765 73.1013C79.7034 73.1013 80.0291 72.9779 80.2781 72.7288C80.776 72.2306 80.776 71.4239 80.2781 70.9257L76.2673 66.9149V64.4781L78.2487 63.3345L80.3368 64.5396L81.8054 70.0189C81.9577 70.5887 82.4727 70.9653 83.0354 70.9653C83.1447 70.9653 83.2557 70.9512 83.3661 70.9213C84.0469 70.7381 84.4497 70.0407 84.2677 69.3593L83.459 66.3428L86.2356 67.9445C86.4366 68.062 86.6559 68.1159 86.872 68.1159C87.3122 68.1159 87.7406 67.8887 87.9768 67.4784C88.3293 66.8687 88.1203 66.0897 87.5106 65.7372L84.7491 64.1432L87.7425 63.3403C88.4229 63.1592 88.8264 62.4595 88.6441 61.7794C88.4629 61.0996 87.7626 60.6993 87.0833 60.8776ZM76.9734 61.1256L75 62.2654L73.028 61.1255L73.0258 58.8447L75 57.7057L76.9734 58.8463V61.1256Z" fill="white"/>
    </g>
    <g clip-path="url(#clip2_206:283)">
        <path d="M145.819 94.7578L137.999 96.8524L134.984 95.1134V91.85L137.964 90.1386L145.819 92.2434C145.977 92.2855 146.136 92.3063 146.293 92.3063C147.1 92.3063 147.838 91.7674 148.056 90.9512C148.318 89.9758 147.739 88.9734 146.764 88.7123L142.458 87.5585L146.427 85.2793C147.302 84.7768 147.605 83.6596 147.103 82.7842C146.598 81.9089 145.483 81.6056 144.608 82.1094L140.63 84.3939L141.783 80.0861C142.045 79.111 141.467 78.1084 140.491 77.8473C139.522 77.5931 138.515 78.165 138.254 79.1395L136.158 86.9607L133.159 88.6829L130.316 87.0392V83.5903L136.065 77.8416C136.779 77.1276 136.779 75.971 136.065 75.2569C135.351 74.543 134.195 74.543 133.481 75.2569L130.316 78.4212V73.8276C130.316 72.8184 129.498 72 128.489 72C127.479 72 126.661 72.8183 126.661 73.8276V78.3985L123.52 75.2569C122.806 74.543 121.649 74.543 120.935 75.2569C120.221 75.9709 120.221 77.1275 120.935 77.8416L126.661 83.5674V87.0525L123.84 88.6801L120.841 86.9595L118.746 79.1396C118.485 78.1651 117.484 77.5916 116.509 77.8474C115.534 78.1085 114.955 79.1111 115.217 80.0862L116.37 84.3933L112.392 82.1094C111.515 81.6055 110.399 81.9081 109.897 82.7847C109.395 83.6602 109.698 84.7767 110.573 85.2792L114.542 87.5584L110.236 88.7122C109.261 88.9733 108.682 89.9757 108.943 90.9511C109.162 91.7673 109.9 92.3062 110.707 92.3062C110.864 92.3062 111.023 92.2854 111.181 92.2433L119.037 90.1378L122.014 91.8469L122.017 95.1133L119.002 96.8555L111.181 94.7578C110.213 94.5036 109.205 95.0762 108.943 96.0503C108.682 97.0253 109.261 98.028 110.236 98.2877L114.527 99.4384L110.568 101.723C109.695 102.229 109.395 103.345 109.9 104.219C110.239 104.807 110.853 105.133 111.484 105.133C111.794 105.133 112.108 105.056 112.396 104.887L116.374 102.592L115.217 106.915C114.955 107.892 115.534 108.891 116.509 109.154C116.667 109.197 116.826 109.217 116.983 109.217C117.79 109.217 118.528 108.677 118.746 107.861L120.851 100.007L123.845 98.2796L126.661 99.9044V103.434L120.935 109.16C120.221 109.874 120.221 111.03 120.935 111.745C121.292 112.102 121.759 112.279 122.227 112.279C122.694 112.279 123.163 112.102 123.52 111.745L126.661 108.603V113.173C126.661 114.184 127.479 115 128.489 115C129.498 115 130.316 114.183 130.316 113.173V108.58L133.481 111.745C133.838 112.102 134.305 112.279 134.773 112.279C135.242 112.279 135.708 112.102 136.065 111.745C136.779 111.031 136.779 109.874 136.065 109.16L130.316 103.411V99.9185L133.156 98.2794L136.149 100.007L138.254 107.86C138.473 108.677 139.211 109.217 140.017 109.217C140.174 109.217 140.333 109.197 140.491 109.154C141.467 108.891 142.045 107.892 141.784 106.915L140.625 102.591L144.604 104.887C144.892 105.056 145.207 105.133 145.517 105.133C146.148 105.133 146.761 104.807 147.1 104.219C147.605 103.345 147.306 102.229 146.432 101.723L142.474 99.4386L146.764 98.2878C147.74 98.0281 148.318 97.0253 148.057 96.0505C147.797 95.0761 146.793 94.5024 145.819 94.7578ZM131.329 95.1134L128.5 96.747L125.673 95.1133L125.67 91.844L128.5 90.2115L131.329 91.8464V95.1134Z" fill="white"/>
    </g>  
</svg>
