<svg width="47" height="64" viewBox="0 0 47 64"
    xmlns="http://www.w3.org/2000/svg">
    <g clip-path="url(#clip0)">
        <path fill-rule="evenodd" clip-rule="evenodd" d="M0.387697 59.9645C11.077 54.9129 18.4673 44.0742 18.4673 31.5183C18.4673 18.9625 11.077 8.12375 0.387695 3.07216C4.49744 1.12996 9.09485 0.0432129 13.9474 0.0432129C31.4213 0.0432129 45.5868 14.1351 45.5868 31.5183C45.5868 48.9015 31.4213 62.9934 13.9474 62.9934C9.09485 62.9934 4.49745 61.9067 0.387697 59.9645Z" fill="white"/>
        <path fill-rule="evenodd" clip-rule="evenodd" d="M0.387697 59.9645C11.077 54.9129 18.4673 44.0742 18.4673 31.5183C18.4673 18.9625 11.077 8.12375 0.387695 3.07216C4.49744 1.12996 9.09485 0.0432129 13.9474 0.0432129C31.4213 0.0432129 45.5868 14.1351 45.5868 31.5183C45.5868 48.9015 31.4213 62.9934 13.9474 62.9934C9.09485 62.9934 4.49745 61.9067 0.387697 59.9645Z" fill="url(#paint0_linear)" fill-opacity="0.3"/>
        <path fill-rule="evenodd" clip-rule="evenodd" d="M0.387697 59.9645C11.077 54.9129 18.4673 44.0742 18.4673 31.5183C18.4673 18.9625 11.077 8.12375 0.387695 3.07216C4.49744 1.12996 9.09485 0.0432129 13.9474 0.0432129C31.4213 0.0432129 45.5868 14.1351 45.5868 31.5183C45.5868 48.9015 31.4213 62.9934 13.9474 62.9934C9.09485 62.9934 4.49745 61.9067 0.387697 59.9645Z" fill="#3F8AE9" fill-opacity="0.5" style="mix-blend-mode:color"/>
    </g>
    <defs>
        <linearGradient id="paint0_linear" x1="0.387695" y1="0.0432129" x2="0.387695" y2="62.9934" gradientUnits="userSpaceOnUse">
            <stop stop-color="white" stop-opacity="0.5"/>
            <stop offset="1" stop-opacity="0.5"/>
        </linearGradient>
        <clipPath id="clip0">
            <rect width="46" height="63" fill="white" transform="translate(0.21875 0.0432129)"/>
        </clipPath>
    </defs>
</svg>
