<svg width="91" height="66" viewBox="0 0 91 66"
    xmlns="http://www.w3.org/2000/svg">
    <defs>
        <filter id="filter0_d" x="0.136719" y="-0.000732422" width="91" height="66" filterUnits="userSpaceOnUse" color-interpolation-filters="sRGB">
            <feFlood flood-opacity="0" result="BackgroundImageFix"/>
            <feColorMatrix in="SourceAlpha" type="matrix" values="0 0 0 0 0 0 0 0 0 0 0 0 0 0 0 0 0 0 127 0" result="hardAlpha"/>
            <feOffset dy="4"/>
            <feGaussianBlur stdDeviation="5"/>
            <feColorMatrix type="matrix" values="0 0 0 0 0 0 0 0 0 0 0 0 0 0 0 0 0 0 0.14 0"/>
            <feBlend mode="normal" in2="BackgroundImageFix" result="effect1_dropShadow"/>
            <feBlend mode="normal" in="SourceGraphic" in2="effect1_dropShadow" result="shape"/>
        </filter>
        <clipPath id="clip0">
            <rect width="71" height="46" fill="white" transform="translate(10.1367 5.99927)"/>
        </clipPath>
    </defs>
    <g clip-path="url(#clip0)" filter="url(#filter0_d)">
        <path fill-rule="evenodd" clip-rule="evenodd" d="M26.6671 51.133H66.7691C74.1367 51.133 80.1381 44.9443 80.1381 37.5895C80.1381 31.4008 76.0742 26.2289 70.3588 24.5435C70.2075 19.0282 65.6403 14.6256 60.0152 14.6256C58.3804 14.6256 56.8399 15.0223 55.4647 15.6883C53.0322 9.99147 47.3224 5.99927 40.6657 5.99927C33.4071 5.99927 27.2766 10.7588 25.2919 17.2853C16.7122 18.3082 10.1367 25.4156 10.1367 34.1591C10.1367 43.3199 17.2627 51.133 26.6671 51.133Z" fill="white"/>
    </g>
</svg>
