<svg width="95" height="53" viewBox="0 0 95 53"
    xmlns="http://www.w3.org/2000/svg">
    <defs>
        <filter id="filter0_d" x="-9.81836" y="0.709717" width="90.0014" height="65.1338" filterUnits="userSpaceOnUse" color-interpolation-filters="sRGB">
            <feFlood flood-opacity="0" result="BackgroundImageFix"/>
            <feColorMatrix in="SourceAlpha" type="matrix" values="0 0 0 0 0 0 0 0 0 0 0 0 0 0 0 0 0 0 127 0" result="hardAlpha"/>
            <feOffset dy="4"/>
            <feGaussianBlur stdDeviation="5"/>
            <feColorMatrix type="matrix" values="0 0 0 0 0 0 0 0 0 0 0 0 0 0 0 0 0 0 0.14 0"/>
            <feBlend mode="normal" in2="BackgroundImageFix" result="effect1_dropShadow"/>
            <feBlend mode="normal" in="SourceGraphic" in2="effect1_dropShadow" result="shape"/>
        </filter>
        <linearGradient id="paint0_linear" x1="36.9624" y1="0.177246" x2="36.9624" y2="36.9972" gradientUnits="userSpaceOnUse">
            <stop stop-opacity="0.01"/>
            <stop offset="1" stop-opacity="0.5"/>
        </linearGradient>
        <clipPath id="clip0">
            <rect width="94" height="52" fill="white" transform="translate(0.181641 0.177246)"/>
        </clipPath>
    </defs>
    <g clip-path="url(#clip0)">
        <path fill-rule="evenodd" clip-rule="evenodd" d="M84.4006 36.9972C89.3658 36.4563 93.32 32.2509 93.32 27.0979C93.32 22.4306 90.0779 18.3847 85.7772 17.5069C84.5994 7.78017 76.5155 0.177246 66.7106 0.177246C59.8149 0.177246 53.7706 3.86676 50.3792 9.46051C50.2953 9.45889 50.212 9.43563 50.1276 9.43563C42.8564 9.43563 36.9624 15.7606 36.9624 23.2164C36.9624 30.4105 42.4503 36.4563 49.3676 36.9972H84.4006Z" fill="#B8C7D8"/>
        <path fill-rule="evenodd" clip-rule="evenodd" d="M84.4006 36.9972C89.3658 36.4563 93.32 32.2509 93.32 27.0979C93.32 22.4306 90.0779 18.3847 85.7772 17.5069C84.5994 7.78017 76.5155 0.177246 66.7106 0.177246C59.8149 0.177246 53.7706 3.86676 50.3792 9.46051C50.2953 9.45889 50.212 9.43563 50.1276 9.43563C42.8564 9.43563 36.9624 15.7606 36.9624 23.2164C36.9624 30.4105 42.4503 36.4563 49.3676 36.9972H84.4006Z" fill="url(#paint0_linear)" fill-opacity="0.2"/>
        <g filter="url(#filter0_d)">
            <path fill-rule="evenodd" clip-rule="evenodd" d="M16.712 51.8435H56.814C64.1816 51.8435 70.183 45.6548 70.183 38.3C70.183 32.1113 66.1191 26.9393 60.4038 25.2539C60.2524 19.7387 55.6853 15.3361 50.0601 15.3361C48.4253 15.3361 46.8848 15.7328 45.5096 16.3987C43.0771 10.7019 37.3673 6.70972 30.7106 6.70972C23.452 6.70972 17.3215 11.4693 15.3368 17.9957C6.75713 19.0186 0.181641 26.1261 0.181641 34.8696C0.181641 44.0303 7.30763 51.8435 16.712 51.8435Z" fill="white"/>
        </g>
    </g>
</svg>
