<svg width="95" height="63" viewBox="0 0 95 63" fill="none"
    xmlns="http://www.w3.org/2000/svg">
    <g clip-path="url(#clip0)">
        <path fill-rule="evenodd" clip-rule="evenodd" d="M84.3928 37.2594C89.358 36.7186 93.3122 32.5131 93.3122 27.3601C93.3122 22.6928 90.07 18.6469 85.7694 17.7691C84.5916 8.04237 76.5077 0.439453 66.7027 0.439453C59.8071 0.439453 53.7628 4.12896 50.3714 9.72272C50.2875 9.7211 50.2042 9.69784 50.1198 9.69784C42.8486 9.69784 36.9546 16.0228 36.9546 23.4786C36.9546 30.6727 42.4425 36.7186 49.3598 37.2594H84.3928Z" fill="#B8C7D8"/>
        <path fill-rule="evenodd" clip-rule="evenodd" d="M84.3928 37.2594C89.358 36.7186 93.3122 32.5131 93.3122 27.3601C93.3122 22.6928 90.07 18.6469 85.7694 17.7691C84.5916 8.04237 76.5077 0.439453 66.7027 0.439453C59.8071 0.439453 53.7628 4.12896 50.3714 9.72272C50.2875 9.7211 50.2042 9.69784 50.1198 9.69784C42.8486 9.69784 36.9546 16.0228 36.9546 23.4786C36.9546 30.6727 42.4425 36.7186 49.3598 37.2594H84.3928Z" fill="url(#paint0_linear)" fill-opacity="0.2"/>
        <g filter="url(#filter0_d)">
            <path fill-rule="evenodd" clip-rule="evenodd" d="M16.7042 52.1057H56.8062C64.1738 52.1057 70.1752 45.917 70.1752 38.5622C70.1752 32.3735 66.1113 27.2015 60.3959 25.5161C60.2446 20.0009 55.6774 15.5983 50.0523 15.5983C48.4175 15.5983 46.877 15.995 45.5018 16.6609C43.0693 10.9641 37.3595 6.97192 30.7028 6.97192C23.4442 6.97192 17.3137 11.7315 15.329 18.2579C6.74932 19.2808 0.173828 26.3883 0.173828 35.1318C0.173828 44.2926 7.29982 52.1057 16.7042 52.1057Z" fill="white"/>
        </g>
        <path fill-rule="evenodd" clip-rule="evenodd" d="M31.7629 34.8838L26.8696 48.7559H34.5142L29.7286 62.2018L44.6668 43.0845L36.4343 42.9016L39.3008 35.068L31.7629 34.8838Z" fill="#FCC02E"/>
    </g>
    <defs>
        <filter id="filter0_d" x="-9.82617" y="0.971924" width="90.0014" height="65.1338" filterUnits="userSpaceOnUse" color-interpolation-filters="sRGB">
            <feFlood flood-opacity="0" result="BackgroundImageFix"/>
            <feColorMatrix in="SourceAlpha" type="matrix" values="0 0 0 0 0 0 0 0 0 0 0 0 0 0 0 0 0 0 127 0" result="hardAlpha"/>
            <feOffset dy="4"/>
            <feGaussianBlur stdDeviation="5"/>
            <feColorMatrix type="matrix" values="0 0 0 0 0 0 0 0 0 0 0 0 0 0 0 0 0 0 0.14 0"/>
            <feBlend mode="normal" in2="BackgroundImageFix" result="effect1_dropShadow"/>
            <feBlend mode="normal" in="SourceGraphic" in2="effect1_dropShadow" result="shape"/>
        </filter>
        <linearGradient id="paint0_linear" x1="36.9546" y1="0.439453" x2="36.9546" y2="37.2594" gradientUnits="userSpaceOnUse">
            <stop stop-opacity="0.01"/>
            <stop offset="1" stop-opacity="0.5"/>
        </linearGradient>
        <clipPath id="clip0">
            <rect width="94" height="62" fill="white" transform="translate(0.173828 0.439453)"/>
        </clipPath>
    </defs>
</svg>
