<svg width="95" height="75" viewBox="0 0 95 75"
    xmlns="http://www.w3.org/2000/svg">
    <defs>
        <filter id="filter0_d" x="-9.50732" y="1.48999" width="90.0014" height="65.1338" filterUnits="userSpaceOnUse" color-interpolation-filters="sRGB">
            <feFlood flood-opacity="0" result="BackgroundImageFix"/>
            <feColorMatrix in="SourceAlpha" type="matrix" values="0 0 0 0 0 0 0 0 0 0 0 0 0 0 0 0 0 0 127 0" result="hardAlpha"/>
            <feOffset dy="4"/>
            <feGaussianBlur stdDeviation="5"/>
            <feColorMatrix type="matrix" values="0 0 0 0 0 0 0 0 0 0 0 0 0 0 0 0 0 0 0.14 0"/>
            <feBlend mode="normal" in2="BackgroundImageFix" result="effect1_dropShadow"/>
            <feBlend mode="normal" in="SourceGraphic" in2="effect1_dropShadow" result="shape"/>
        </filter>
        <linearGradient id="paint0_linear" x1="37.2734" y1="0.95752" x2="37.2734" y2="37.7774" gradientUnits="userSpaceOnUse">
            <stop stop-opacity="0.01"/>
            <stop offset="1" stop-opacity="0.5"/>
        </linearGradient>
        <clipPath id="clip0">
            <rect width="94" height="74" fill="white" transform="translate(0.492676 0.95752)"/>
        </clipPath>
    </defs>
    <g clip-path="url(#clip0)">
        <path fill-rule="evenodd" clip-rule="evenodd" d="M49.6786 37.7774H84.7116C89.6769 37.2366 93.631 33.0312 93.631 27.8782C93.631 23.2109 90.3889 19.1649 86.0882 18.2872C84.9105 8.56044 76.8265 0.95752 67.0216 0.95752C60.126 0.95752 54.0816 4.64703 50.6902 10.2408C50.6064 10.2392 50.523 10.2159 50.4386 10.2159C43.1675 10.2159 37.2734 16.5409 37.2734 23.9967C37.2734 31.1907 42.7614 37.2366 49.6786 37.7774Z" fill="#2D6CB5"/>
        <path fill-rule="evenodd" clip-rule="evenodd" d="M49.6786 37.7774H84.7116C89.6769 37.2366 93.631 33.0312 93.631 27.8782C93.631 23.2109 90.3889 19.1649 86.0882 18.2872C84.9105 8.56044 76.8265 0.95752 67.0216 0.95752C60.126 0.95752 54.0816 4.64703 50.6902 10.2408C50.6064 10.2392 50.523 10.2159 50.4386 10.2159C43.1675 10.2159 37.2734 16.5409 37.2734 23.9967C37.2734 31.1907 42.7614 37.2366 49.6786 37.7774Z" fill="url(#paint0_linear)" fill-opacity="0.2"/>
        <g filter="url(#filter0_d)">
            <path fill-rule="evenodd" clip-rule="evenodd" d="M17.023 52.6238H57.1251C64.4926 52.6238 70.494 46.435 70.494 39.0803C70.494 32.8916 66.4302 27.7196 60.7148 26.0342C60.5634 20.5189 55.9963 16.1164 50.3712 16.1164C48.7363 16.1164 47.1959 16.513 45.8207 17.179C43.3882 11.4822 37.6784 7.48999 31.0216 7.48999C23.7631 7.48999 17.6325 12.2495 15.6478 18.776C7.06817 19.7989 0.492676 26.9063 0.492676 35.6499C0.492676 44.8106 7.61867 52.6238 17.023 52.6238Z" fill="white"/>
        </g>
        <ellipse cx="26.0018" cy="67.0954" rx="4.7459" ry="7.12644" fill="#2078DC"/>
        <ellipse cx="43.206" cy="61.7507" rx="2.37295" ry="3.56322" fill="#2078DC"/>
    </g>
</svg>
