<svg width="94" height="83" viewBox="0 0 94 83"
    xmlns="http://www.w3.org/2000/svg">
    <defs>
        <filter id="filter0_d" x="-9.82617" y="0.462646" width="90.0014" height="65.1338" filterUnits="userSpaceOnUse" color-interpolation-filters="sRGB">
            <feFlood flood-opacity="0" result="BackgroundImageFix"/>
            <feColorMatrix in="SourceAlpha" type="matrix" values="0 0 0 0 0 0 0 0 0 0 0 0 0 0 0 0 0 0 127 0" result="hardAlpha"/>
            <feOffset dy="4"/>
            <feGaussianBlur stdDeviation="5"/>
            <feColorMatrix type="matrix" values="0 0 0 0 0 0 0 0 0 0 0 0 0 0 0 0 0 0 0.14 0"/>
            <feBlend mode="normal" in2="BackgroundImageFix" result="effect1_dropShadow"/>
            <feBlend mode="normal" in="SourceGraphic" in2="effect1_dropShadow" result="shape"/>
        </filter>
        <linearGradient id="paint0_linear" x1="36.9546" y1="-0.0698242" x2="36.9546" y2="36.7501" gradientUnits="userSpaceOnUse">
            <stop stop-opacity="0.01"/>
            <stop offset="1" stop-opacity="0.5"/>
        </linearGradient>
        <clipPath id="clip0">
            <rect width="94" height="83" fill="white"/>
        </clipPath>
    </defs>
    <g clip-path="url(#clip0)">
        <path fill-rule="evenodd" clip-rule="evenodd" d="M49.3598 36.7501H84.3928C89.358 36.2093 93.3122 32.0038 93.3122 26.8508C93.3122 22.1835 90.07 18.1376 85.7694 17.2598C84.5916 7.5331 76.5077 -0.0698242 66.7027 -0.0698242C59.8071 -0.0698242 53.7628 3.61969 50.3714 9.21344C50.2875 9.21182 50.2042 9.18856 50.1198 9.18856C42.8486 9.18856 36.9546 15.5135 36.9546 22.9693C36.9546 30.1634 42.4425 36.2093 49.3598 36.7501Z" fill="#2D6CB5"/>
        <path fill-rule="evenodd" clip-rule="evenodd" d="M49.3598 36.7501H84.3928C89.358 36.2093 93.3122 32.0038 93.3122 26.8508C93.3122 22.1835 90.07 18.1376 85.7694 17.2598C84.5916 7.5331 76.5077 -0.0698242 66.7027 -0.0698242C59.8071 -0.0698242 53.7628 3.61969 50.3714 9.21344C50.2875 9.21182 50.2042 9.18856 50.1198 9.18856C42.8486 9.18856 36.9546 15.5135 36.9546 22.9693C36.9546 30.1634 42.4425 36.2093 49.3598 36.7501Z" fill="url(#paint0_linear)" fill-opacity="0.2"/>
        <g filter="url(#filter0_d)">
            <path fill-rule="evenodd" clip-rule="evenodd" d="M16.7042 51.5964H56.8062C64.1738 51.5964 70.1752 45.4077 70.1752 38.0529C70.1752 31.8642 66.1113 26.6922 60.3959 25.0068C60.2446 19.4916 55.6774 15.089 50.0523 15.089C48.4175 15.089 46.877 15.4857 45.5018 16.1516C43.0693 10.4549 37.3595 6.46265 30.7028 6.46265C23.4442 6.46265 17.3137 11.2222 15.329 17.7487C6.74932 18.7715 0.173828 25.879 0.173828 34.6225C0.173828 43.7833 7.29982 51.5964 16.7042 51.5964Z" fill="white"/>
        </g>
        <path fill-rule="evenodd" clip-rule="evenodd" d="M31.7629 34.3745L26.8696 48.2466H34.5142L29.7286 61.6925L44.6668 42.5752L36.4343 42.3923L39.3008 34.5587L31.7629 34.3745Z" fill="#FCC02E"/>
        <ellipse cx="26.0018" cy="75.9079" rx="4.7459" ry="7.12644" fill="#B6D8FF"/>
        <ellipse cx="43.206" cy="70.5632" rx="2.37295" ry="3.56322" fill="#B6D8FF"/>
    </g>
</svg>
