<svg width="76" height="56" viewBox="0 0 76 56"
    xmlns="http://www.w3.org/2000/svg">
    <defs>
        <filter id="filter0_d" x="23.6875" y="8.33423" width="46.8484" height="46.8812" filterUnits="userSpaceOnUse" color-interpolation-filters="sRGB">
            <feFlood flood-opacity="0" result="BackgroundImageFix"/>
            <feColorMatrix in="SourceAlpha" type="matrix" values="0 0 0 0 0 0 0 0 0 0 0 0 0 0 0 0 0 0 127 0" result="hardAlpha"/>
            <feOffset dy="4"/>
            <feGaussianBlur stdDeviation="4"/>
            <feColorMatrix type="matrix" values="0 0 0 0 0 0 0 0 0 0 0 0 0 0 0 0 0 0 0.1 0"/>
            <feBlend mode="normal" in2="BackgroundImageFix" result="effect1_dropShadow"/>
            <feBlend mode="normal" in="SourceGraphic" in2="effect1_dropShadow" result="shape"/>
        </filter>
        <filter id="filter1_d" x="-7.16113" y="19.0239" width="65.8315" height="48.0687" filterUnits="userSpaceOnUse" color-interpolation-filters="sRGB">
            <feFlood flood-opacity="0" result="BackgroundImageFix"/>
            <feColorMatrix in="SourceAlpha" type="matrix" values="0 0 0 0 0 0 0 0 0 0 0 0 0 0 0 0 0 0 127 0" result="hardAlpha"/>
            <feOffset dy="4"/>
            <feGaussianBlur stdDeviation="4"/>
            <feColorMatrix type="matrix" values="0 0 0 0 0 0 0 0 0 0 0 0 0 0 0 0 0 0 0.14 0"/>
            <feBlend mode="normal" in2="BackgroundImageFix" result="effect1_dropShadow"/>
            <feBlend mode="normal" in="SourceGraphic" in2="effect1_dropShadow" result="shape"/>
        </filter>
        <linearGradient id="paint0_linear" x1="18.6362" y1="-0.730713" x2="18.6362" y2="53.4904" gradientUnits="userSpaceOnUse">
            <stop stop-color="white" stop-opacity="0.5"/>
            <stop offset="1" stop-opacity="0.5"/>
        </linearGradient>
        <clipPath id="clip0">
            <rect width="75" height="55" fill="white" transform="translate(0.838867 0.315674)"/>
        </clipPath>
        <clipPath id="clip1">
            <rect width="57" height="55" fill="white" transform="translate(18.6362 0.315674)"/>
        </clipPath>
    </defs>
    <g clip-path="url(#clip0)">
        <g clip-path="url(#clip1)">
            <path fill-rule="evenodd" clip-rule="evenodd" d="M47.1116 48.2992L38.3123 54.8856L35.0607 44.3794L24.0745 44.5303L27.6128 34.1173L18.6362 27.775L27.6128 21.4327L24.0745 11.0198L35.0607 11.1707L38.3123 0.664458L47.1116 7.2509L55.911 0.664458L59.1626 11.1707L70.1487 11.0198L66.6105 21.4327L75.587 27.775L66.6105 34.1173L70.1487 44.5303L59.1626 44.3794L55.911 54.8856L47.1116 48.2992Z" fill="#FCC02E"/>
            <path fill-rule="evenodd" clip-rule="evenodd" d="M47.1116 48.2992L38.3123 54.8856L35.0607 44.3794L24.0745 44.5303L27.6128 34.1173L18.6362 27.775L27.6128 21.4327L24.0745 11.0198L35.0607 11.1707L38.3123 0.664458L47.1116 7.2509L55.911 0.664458L59.1626 11.1707L70.1487 11.0198L66.6105 21.4327L75.587 27.775L66.6105 34.1173L70.1487 44.5303L59.1626 44.3794L55.911 54.8856L47.1116 48.2992Z" fill="url(#paint0_linear)" fill-opacity="0.3" style="mix-blend-mode:overlay"/>
            <g filter="url(#filter0_d)">
                <ellipse cx="47.1117" cy="27.7748" rx="15.4242" ry="15.4406" fill="#FEE6AC"/>
            </g>
        </g>
        <g filter="url(#filter1_d)">
            <path fill-rule="evenodd" clip-rule="evenodd" d="M41.1534 55.0927C46.3982 55.0927 50.6703 50.6954 50.6703 45.4696C50.6703 41.0724 47.7774 37.3976 43.7088 36.2001C43.6011 32.2813 40.3499 29.1532 36.3456 29.1532C35.1818 29.1532 34.0852 29.435 33.1062 29.9082C31.3746 25.8605 27.31 23.0239 22.5714 23.0239C17.4042 23.0239 13.0401 26.4057 11.6273 31.0429C5.51973 31.7697 0.838867 36.8198 0.838867 43.0323C0.838867 49.5412 5.91161 55.0927 12.6062 55.0927H41.1534Z" fill="white"/>
        </g>
    </g>
</svg>
