<svg width="94" height="93" viewBox="0 0 94 93"
    xmlns="http://www.w3.org/2000/svg">
    <defs>
        <filter id="filter0_d" x="-10" y="0.956787" width="90.0014" height="65.1338" filterUnits="userSpaceOnUse" color-interpolation-filters="sRGB">
            <feFlood flood-opacity="0" result="BackgroundImageFix"/>
            <feColorMatrix in="SourceAlpha" type="matrix" values="0 0 0 0 0 0 0 0 0 0 0 0 0 0 0 0 0 0 127 0" result="hardAlpha"/>
            <feOffset dy="4"/>
            <feGaussianBlur stdDeviation="5"/>
            <feColorMatrix type="matrix" values="0 0 0 0 0 0 0 0 0 0 0 0 0 0 0 0 0 0 0.14 0"/>
            <feBlend mode="normal" in2="BackgroundImageFix" result="effect1_dropShadow"/>
            <feBlend mode="normal" in="SourceGraphic" in2="effect1_dropShadow" result="shape"/>
        </filter>
        <linearGradient id="paint0_linear" x1="36.7808" y1="0.424316" x2="36.7808" y2="37.2442" gradientUnits="userSpaceOnUse">
            <stop stop-opacity="0.01"/>
            <stop offset="1" stop-opacity="0.5"/>
        </linearGradient>
        <clipPath id="clip0">
            <rect width="94" height="92" fill="white" transform="translate(0 0.424316)"/>
        </clipPath>
    </defs>
    <g clip-path="url(#clip0)">
        <path fill-rule="evenodd" clip-rule="evenodd" d="M49.1859 37.2442H84.219C89.1842 36.7034 93.1383 32.498 93.1383 27.345C93.1383 22.6777 89.8962 18.6317 85.5955 17.754C84.4178 8.02724 76.3339 0.424316 66.5289 0.424316C59.6333 0.424316 53.5889 4.11383 50.1975 9.70758C50.1137 9.70596 50.0304 9.6827 49.946 9.6827C42.6748 9.6827 36.7808 16.0077 36.7808 23.4635C36.7808 30.6575 42.2687 36.7034 49.1859 37.2442Z" fill="#2D6CB5"/>
        <path fill-rule="evenodd" clip-rule="evenodd" d="M49.1859 37.2442H84.219C89.1842 36.7034 93.1383 32.498 93.1383 27.345C93.1383 22.6777 89.8962 18.6317 85.5955 17.754C84.4178 8.02724 76.3339 0.424316 66.5289 0.424316C59.6333 0.424316 53.5889 4.11383 50.1975 9.70758C50.1137 9.70596 50.0304 9.6827 49.946 9.6827C42.6748 9.6827 36.7808 16.0077 36.7808 23.4635C36.7808 30.6575 42.2687 36.7034 49.1859 37.2442Z" fill="url(#paint0_linear)" fill-opacity="0.2"/>
        <g filter="url(#filter0_d)">
            <path fill-rule="evenodd" clip-rule="evenodd" d="M16.5304 52.0905H56.6324C64 52.0905 70.0014 45.9018 70.0014 38.5471C70.0014 32.3584 65.9375 27.1864 60.2221 25.501C60.0708 19.9857 55.5036 15.5832 49.8785 15.5832C48.2436 15.5832 46.7032 15.9798 45.328 16.6458C42.8955 10.949 37.1857 6.95679 30.529 6.95679C23.2704 6.95679 17.1399 11.7163 15.1551 18.2428C6.57549 19.2657 0 26.3731 0 35.1167C0 44.2774 7.12599 52.0905 16.5304 52.0905Z" fill="white"/>
        </g>
        <ellipse cx="74.7479" cy="53.2788" rx="4.7459" ry="7.12644" fill="#B6D8FF"/>
        <ellipse cx="13.6443" cy="73.4702" rx="4.7459" ry="7.12644" fill="#B6D8FF"/>
        <ellipse cx="38.5605" cy="61.2175" rx="2.37295" ry="3.56322" fill="#B6D8FF"/>
        <ellipse cx="80.0873" cy="88.5354" rx="2.37295" ry="3.56322" fill="#B6D8FF"/>
    </g>
</svg>
