<svg width="69" height="53" viewBox="0 0 69 53"
    xmlns="http://www.w3.org/2000/svg">
    <defs>
        <filter id="filter0_d" x="-7.16113" y="8.82837" width="65.8315" height="48.0687" filterUnits="userSpaceOnUse" color-interpolation-filters="sRGB">
            <feFlood flood-opacity="0" result="BackgroundImageFix"/>
            <feColorMatrix in="SourceAlpha" type="matrix" values="0 0 0 0 0 0 0 0 0 0 0 0 0 0 0 0 0 0 127 0" result="hardAlpha"/>
            <feOffset dy="4"/>
            <feGaussianBlur stdDeviation="4"/>
            <feColorMatrix type="matrix" values="0 0 0 0 0 0 0 0 0 0 0 0 0 0 0 0 0 0 0.2 0"/>
            <feBlend mode="normal" in2="BackgroundImageFix" result="effect1_dropShadow"/>
            <feBlend mode="normal" in="SourceGraphic" in2="effect1_dropShadow" result="shape"/>
        </filter>
        <linearGradient id="paint0_linear" x1="31.751" y1="0.357178" x2="31.751" y2="52.0238" gradientUnits="userSpaceOnUse">
            <stop stop-color="white" stop-opacity="0.5"/>
            <stop offset="1" stop-opacity="0.5"/>
        </linearGradient>
        <clipPath id="clip0">
            <rect width="68" height="52" fill="white" transform="translate(0.838867 0.357178)"/>
        </clipPath>
    </defs>
    <g clip-path="url(#clip0)">
        <path fill-rule="evenodd" clip-rule="evenodd" d="M31.751 49.5378C40.4695 45.3917 46.4972 36.4958 46.4972 26.1905C46.4972 15.8852 40.4695 6.98932 31.751 2.8432C35.103 1.24913 38.8528 0.357178 42.8106 0.357178C57.0628 0.357178 68.6165 11.9232 68.6165 26.1905C68.6165 40.4579 57.0628 52.0238 42.8106 52.0238C38.8528 52.0238 35.103 51.1319 31.751 49.5378Z" fill="white"/>
        <path fill-rule="evenodd" clip-rule="evenodd" d="M31.751 49.5378C40.4695 45.3917 46.4972 36.4958 46.4972 26.1905C46.4972 15.8852 40.4695 6.98932 31.751 2.8432C35.103 1.24913 38.8528 0.357178 42.8106 0.357178C57.0628 0.357178 68.6165 11.9232 68.6165 26.1905C68.6165 40.4579 57.0628 52.0238 42.8106 52.0238C38.8528 52.0238 35.103 51.1319 31.751 49.5378Z" fill="url(#paint0_linear)" fill-opacity="0.3"/>
        <path fill-rule="evenodd" clip-rule="evenodd" d="M31.751 49.5378C40.4695 45.3917 46.4972 36.4958 46.4972 26.1905C46.4972 15.8852 40.4695 6.98932 31.751 2.8432C35.103 1.24913 38.8528 0.357178 42.8106 0.357178C57.0628 0.357178 68.6165 11.9232 68.6165 26.1905C68.6165 40.4579 57.0628 52.0238 42.8106 52.0238C38.8528 52.0238 35.103 51.1319 31.751 49.5378Z" fill="#3F8AE9" fill-opacity="0.5" style="mix-blend-mode:color"/>
        <g filter="url(#filter0_d)">
            <path fill-rule="evenodd" clip-rule="evenodd" d="M12.6062 44.8971H41.1534C46.3982 44.8971 50.6703 40.4999 50.6703 35.2741C50.6703 30.8769 47.7774 27.202 43.7088 26.0045C43.6011 22.0858 40.3499 18.9576 36.3456 18.9576C35.1818 18.9576 34.0852 19.2395 33.1062 19.7127C31.3746 15.6649 27.31 12.8284 22.5714 12.8284C17.4042 12.8284 13.0401 16.2101 11.6273 20.8474C5.51973 21.5742 0.838867 26.6242 0.838867 32.8367C0.838867 39.3457 5.91161 44.8971 12.6062 44.8971Z" fill="white"/>
        </g>
    </g>
    
</svg>
