<svg width="95" height="91" viewBox="0 0 95 91"
    xmlns="http://www.w3.org/2000/svg">
    <g clip-path="url(#clip0)">
        <path fill-rule="evenodd" clip-rule="evenodd" d="M49.5048 37.7411H84.5378C89.503 37.2002 93.4572 32.9948 93.4572 27.8418C93.4572 23.1745 90.2151 19.1286 85.9144 18.2508C84.7366 8.52406 76.6527 0.921143 66.8478 0.921143C59.9521 0.921143 53.9078 4.61065 50.5164 10.2044C50.4325 10.2028 50.3492 10.1795 50.2648 10.1795C42.9936 10.1795 37.0996 16.5045 37.0996 23.9603C37.0996 31.1544 42.5875 37.2002 49.5048 37.7411Z" fill="#2D6CB5"/>
        <path fill-rule="evenodd" clip-rule="evenodd" d="M49.5048 37.7411H84.5378C89.503 37.2002 93.4572 32.9948 93.4572 27.8418C93.4572 23.1745 90.2151 19.1286 85.9144 18.2508C84.7366 8.52406 76.6527 0.921143 66.8478 0.921143C59.9521 0.921143 53.9078 4.61065 50.5164 10.2044C50.4325 10.2028 50.3492 10.1795 50.2648 10.1795C42.9936 10.1795 37.0996 16.5045 37.0996 23.9603C37.0996 31.1544 42.5875 37.2002 49.5048 37.7411Z" fill="url(#paint0_linear)" fill-opacity="0.2"/>
        <g filter="url(#filter0_d)">
            <path fill-rule="evenodd" clip-rule="evenodd" d="M16.8492 52.5874H56.9512C64.3188 52.5874 70.3202 46.3987 70.3202 39.0439C70.3202 32.8552 66.2563 27.6832 60.541 25.9978C60.3896 20.4826 55.8225 16.08 50.1973 16.08C48.5625 16.08 47.022 16.4767 45.6468 17.1426C43.2143 11.4458 37.5045 7.45361 30.8478 7.45361C23.5892 7.45361 17.4587 12.2132 15.474 18.7396C6.89434 19.7625 0.318848 26.87 0.318848 35.6135C0.318848 44.7742 7.44484 52.5874 16.8492 52.5874Z" fill="white"/>
        </g>
        <circle cx="74.8188" cy="56.4211" r="4.5" fill="#2078DC"/>
        <circle cx="13.8188" cy="77.4211" r="4.5" fill="#2078DC"/>
        <circle cx="79.8188" cy="88.4211" r="2.5" fill="#2078DC"/>
        <circle cx="38.8188" cy="61.4211" r="2.5" fill="#2078DC"/>
    </g>
    <defs>
        <filter id="filter0_d" x="-9.68115" y="1.45361" width="90.0014" height="65.1338" filterUnits="userSpaceOnUse" color-interpolation-filters="sRGB">
            <feFlood flood-opacity="0" result="BackgroundImageFix"/>
            <feColorMatrix in="SourceAlpha" type="matrix" values="0 0 0 0 0 0 0 0 0 0 0 0 0 0 0 0 0 0 127 0" result="hardAlpha"/>
            <feOffset dy="4"/>
            <feGaussianBlur stdDeviation="5"/>
            <feColorMatrix type="matrix" values="0 0 0 0 0 0 0 0 0 0 0 0 0 0 0 0 0 0 0.14 0"/>
            <feBlend mode="normal" in2="BackgroundImageFix" result="effect1_dropShadow"/>
            <feBlend mode="normal" in="SourceGraphic" in2="effect1_dropShadow" result="shape"/>
        </filter>
        <linearGradient id="paint0_linear" x1="37.0996" y1="0.921143" x2="37.0996" y2="37.7411" gradientUnits="userSpaceOnUse">
            <stop stop-opacity="0.01"/>
            <stop offset="1" stop-opacity="0.5"/>
        </linearGradient>
        <clipPath id="clip0">
            <rect width="94" height="90" fill="white" transform="translate(0.318848 0.921143)"/>
        </clipPath>
    </defs>
</svg>
